<mxfile host="app.diagrams.net" agent="Mozilla/5.0 (Windows NT 10.0; Win64; x64) AppleWebKit/537.36 (KHTML, like Gecko) Chrome/128.0.0.0 Safari/537.36" version="24.7.12">
  <diagram name="第 1 页" id="9KLRSzwR5Rb6bPKx1VTn">
    <mxGraphModel dx="1434" dy="746" grid="1" gridSize="10" guides="1" tooltips="1" connect="1" arrows="1" fold="1" page="1" pageScale="1" pageWidth="827" pageHeight="1169" math="0" shadow="0">
      <root>
        <mxCell id="0" />
        <mxCell id="1" parent="0" />
        <mxCell id="nARX7tSyhjKvSozt1vOL-3" value="" style="rounded=0;whiteSpace=wrap;html=1;" parent="1" vertex="1">
          <mxGeometry x="50" y="30" width="1160" height="500" as="geometry" />
        </mxCell>
        <mxCell id="nARX7tSyhjKvSozt1vOL-16" value="" style="rounded=0;whiteSpace=wrap;html=1;movable=0;resizable=0;rotatable=0;deletable=0;editable=0;locked=1;connectable=0;" parent="1" vertex="1">
          <mxGeometry x="270" y="50" width="770" height="460" as="geometry" />
        </mxCell>
        <mxCell id="nARX7tSyhjKvSozt1vOL-7" value="" style="rounded=0;whiteSpace=wrap;html=1;movable=0;resizable=0;rotatable=0;deletable=0;editable=0;locked=1;connectable=0;" parent="1" vertex="1">
          <mxGeometry x="1050" y="50" width="140" height="460" as="geometry" />
        </mxCell>
        <mxCell id="nARX7tSyhjKvSozt1vOL-10" value="&lt;h2&gt;数据库&lt;/h2&gt;" style="text;strokeColor=none;fillColor=none;spacingLeft=4;spacingRight=4;overflow=hidden;rotatable=0;points=[[0,0.5],[1,0.5]];portConstraint=eastwest;fontSize=12;whiteSpace=wrap;html=1;" parent="1" vertex="1">
          <mxGeometry x="1087.5" y="60" width="65" height="45" as="geometry" />
        </mxCell>
        <mxCell id="1oweK36hP_e1x9AW6LBD-50" style="edgeStyle=orthogonalEdgeStyle;rounded=0;orthogonalLoop=1;jettySize=auto;html=1;entryX=1;entryY=0.75;entryDx=0;entryDy=0;" parent="1" source="nARX7tSyhjKvSozt1vOL-11" target="1oweK36hP_e1x9AW6LBD-17" edge="1">
          <mxGeometry relative="1" as="geometry" />
        </mxCell>
        <mxCell id="nARX7tSyhjKvSozt1vOL-11" value="" style="image;sketch=0;aspect=fixed;html=1;points=[];align=center;fontSize=12;image=img/lib/mscae/Cache_Redis_Product.svg;" parent="1" vertex="1">
          <mxGeometry x="1087.5" y="318.01" width="80.34" height="67.48" as="geometry" />
        </mxCell>
        <mxCell id="nARX7tSyhjKvSozt1vOL-15" value="" style="rounded=1;whiteSpace=wrap;html=1;" parent="1" vertex="1">
          <mxGeometry x="1063" y="163.41" width="114" height="60" as="geometry" />
        </mxCell>
        <mxCell id="nARX7tSyhjKvSozt1vOL-13" value="" style="shape=image;verticalLabelPosition=bottom;labelBackgroundColor=default;verticalAlign=top;aspect=fixed;imageAspect=0;image=data:image/png,iVBORw0KGgoAAAANSUhEUgAAALwAAABvCAYAAABW46oqAAAAAXNSR0IArs4c6QAAAARnQU1BAACxjwv8YQUAAAAJcEhZcwAADsMAAA7DAcdvqGQAABMtSURBVHhe7Z0JdF3FecfTnpRuaRvaBEhoWijZGtKQLtlb0pASElJooCUbaTZCT0OaBEJYjU2wARMMXuVFsiUjW95kWbYsWxbeF3mXJUuWbdmSvMmWZFle375I0/efN/N038zc9+6T7pPefXd+53znSDPfHfnA/8377sw337yDaDQuQgte4yq04DWuQgte4yq04DWuQgte4yq04DWuQgte4yq04HOY36zfTW5/YwF515gC8vmCpeTlTXvJoe4+1qsZClrwOcr/rthE3vHUFKXdP7+KbGw7wzw1maAFn6NA2Jjdt3R0Upu8/QD5x2mLkoT/k+UbSNuFy+wJjRW04HMUCPpfZy9nvw1SuKc5Sfg3jS8i0+saScO5XtJ9zcu8NGZowecoPHZv77vCWpKB8G8cX5gQvtG+XFhBXonF+/vO9DBvDUcLPkd5YvU2Kt4HSqtZi0xT1wX6wRAFb7R7i1eR+fsPsyc0WvA5yrmr3oSYsVqTjkv+IOm4eIXUd54nSxpbyd1FK5KE/423VpPGWNjjdrTgc5jqIx0JwVYd7mCt1tl1qou+2PIx3j1uFpmyo4H1uhMt+BwHszvEeuesctaSOVjleTAWGnHhY7Z363q+FrwDwGoNhDrVZHb2hMJkS3snuRYMsRY1c3Y3k3ePnUXHunViiSvX8rXgHQBmaIj0A6/MI32+AGsdBLH7n7wwk9wxuYxcDaQWPVZuvjSnIjHbL47F+25CC94h8NCmxGTFBSsx6H918z7WYk60f4A8Wb09Ifqfr9rCevIfLXiHcLCrl4rTbJmyf2CAfOi388nMXQdZS3qeXrsjIfqvzK1krfmNFryDuLd4JXnnM9NMN6P2d/bQ2TsTflo5mLPz7UU1rDV/0YJ3EPP2HqLCnLLd3qXFp9YMzvTPr9vJWvMTLXgHcTH2wnrjS4XkrsIK1mIfiOO56PHByle04B0GD0EOnD3PWuzja/NW0rGx4rPndDdrzS+04B3G+uOnqSitpBtkCpY8Pxh78cX4WLqMxl6E8w0teAfy6elLyB89P4M0ZGGW38A+ULCn1mxnrfmDFrwDQXIYBJmtVZXHV29NiH5Z0zHWmh9owTsUiB2CzEZoc+rSVfK+8UV0/L+ZWEJ6rvlYj/PRgncoeGn9/eemU1EuOHCEtdrHb7fsT8zyk7bWs1bnowXvYN7YdiBrs3woGiX/MDV+lPATkxeyVuejBe9g+Np55aE21mIvOEbIZ/lsfIuMBlrwDgYnov78xdl0Qypb8APj+ZJrowXvUFp6+qgQH168jrVkh9m7mxKz/LrWk6zVuWjBO5SyhqNUhDN3Ws+OHAr+cIR85PW36N/6Vtla1upctOAdCs+Px7nVbIMcez7Lj8TfyyZa8A4FoQwEOBKggsINL82hf+9/KjayVmeiBe9QvjBzGXnvb+aw37IP0gwg+OuenUbfH5yKFrxD+dtJpXSVxowam18wIXIcPoHof+3gHBsteIeCvHhV7UmAsCMb51QfYTVu3hP7Zum84mGtzkIL3qH8Xmy2xSwvsrKlnYryL1+eS3q9ftZqD9tPnKVjw1Cr3olowTuUT04pI9ePm81+G+RzBUsTonw9CzkwKOKEsf/ixdl0ydJpaME7lF9WxVN4uw2ZjAgzuNhh+AYIRqKs1x6M5f+cOMtrwTuUt+rjdWiMmYwoqsTFyEtwoNqY3dxXUpX4O99dvI6sOXKC9eQ+WvAOBTnrOHv61XkrWQuhqycQ4R+PKaC/42fUqslGPrt4Gwk+BJj9cx0teAfzaEV81WTHyXP09x8ue5v+/tkZS+jvmP3xO8KfbFBafyRx8JtbrgtfC97BbGo7Q0WGTEZcjsBfKH9cvp72Y2a/5dVi2vb2sVO0LRvgnincQcWLvsImbMzN+F4L3uE8wc6fIrz5l1nl9GdjQhmvOWm2Zm83e890k/vmx2P87yyqIV05du+UFnwegCxGCAyG3ddeT/L6O78C8/Ut+1lL9nkt9reuezZ+BHFj22nWOvpowecJmMnn7j1kmueCsOf6cbNG9CKEuti7BS/NnSvpCFrwLuJX1dvoMuJIw1OZcevgaKMF7zIgvtGoHVnedDwRco0mWvAuZFpdY1aTv5BygKXJsbW76PWbj1ZsjH2z1JCvF6+iokcS2mihBe9Sqm3eHUXZPyxNYh3+D5+fQYUtGhLa7p9fRWvejBZa8C7msI0HOYw7r0gfxgEV7Adg8wv1Ki/YnLk5VLTgXU7ApoxHYw2bXD4GqAWvsY0fLVufED3SHHIRLXiNrRjTCxCvYy0+l9CC19jOszV1CdHDkKocjvaz3tFFC16TFXCfrFH0uIEwF/JqtOA1WeNgVy/d3UU5ES58nso8WmjBa7IOCjlN3LyPfOyNUir605evsZ6RRws+20RDJHq+kfRfO8sa7GcgeIX0X24n0a49pL+3mQx4uwjpD7Pe3AFxPL9oYbSwXfDPraujb+oqW3N0eLt7qjFh+Ju5RLillAQ2/Iz4lnyJXJt2fcI8RR8kvspvkMDWp0mkbTXzHhqR45UksOXXsTE/lPQ3jOaruI+E6qfHPnCZFVzFc6IF97zGeofP8qbjdNf14Lle1jJy2C74HyyNHzNT2QOl1cwrc/hBBpX9iJ3wGW0ix1fFxPF1pfhU5lt6FwkdLCQDYesvc5G2KuJbfq9yPFObcQMJ7hhHBjzW4mcIXBzDTsGDg7H4/pujUI3YdsHfPXeFJEijDRVsVavGg32tePAg82gRqH1UEolV8y6+k42SGohO9bxV8y78HOm/eJSNZs5ICH60sF3wt7+5QClKbttODC2WVY3F7e+nLmJeo0O4uUQSCDfP7A8Q74JPURFBcKoQxIqY0ondM/fDUgilMiui14K3CC5uxhUsKlFy+/7SWuZtnYrmeC61mb1vQhHzHHmiXXtpyCAKxFN8Owk1zGReMgh//DU/pL7pCLcskMaHQbzoSxJwJECiZ3fF/naB8hmYf90jzFmNFrxFxMpXZpYpqL2iGofb78Tskj979xylIrDpCUkcnjm30NUSO4CYPXM/Iv0NKzM1PlTic9wix1YwLxkteIvsOd0tiZGvvRqtIcO3c/F5ldmZ6poJvqVflsSRambPFP+a70njW43FgZno8e82QwveIisOtUlC/NnKzco2q6CeivFZfneoaKNyMr4/Egtn3iuJw6oY09F/uUMaGxY+upR5WMPshTrauYN5JKMFb5HpdY2SEFUfAtwgbZWHFq5JevaF2p1JW9XcFgr3iG7p6FRat8V8DtWzsGO9l5hHLH4/3ygJAzbgO888hgeWLMWxPTNvJgOhzHYqIyfflsaBYR1fhRa8RZ5hBTyNdtkfJDdPmCu1o1qVFcTncKkWDgKL7eKxsfMeHy0nLfq9YrHirfFAAzdschnBTC4KAxbpqGEew8O/6iFpbH/1w6w3M7DpJY7lLfs8601GC94i31sSv2jLaPH2Wqn9mRr116kRVLEyPoPrEwGEZ2yHPb5arp+IjQ3R77bXSlhvanhhUqM9Wb2N9cYZCFyShAHzlX+VeQwPT+Gt0tjYYR0KfEUoyWbcwHqT0YK3yF2F8aI7RgMl+1qkdpx7TAfORBqfwcVaQAxzYKo7RFGYSPSDRbF+mgYcXhCfQzlqEaQKiOKA4aUQIc9QMQuX+i+0MI/MCB2Yrh7vinwXlBa8RT46KX6BLTfUOwQo7fyuMQVJfbB0ZZxF/y3tnbT9McWL8BeFcAMgK+8PnpNP0OODkI5bJ5ZIzxnjd074cJkkjoQV3ETCh+LfSpmC51RjDvX9IHxksXK86Bn5m1EL3iJ/OnZmkkD+6pV5rIckCmwaLdUNEsdjMb7R1/iNwCtZGY2HOyKqvyvG4iLtfcl/G/aJyQtZrwzialEgRkM4Ee3ex7ytEdz5knKsoRI5uV45HpYtRbTgLYCXU1Ekd0wuY72ETNneIPXfOrGY9crwK124/cJwKx2q4xr7YH8W+7CpUK0cwVJRc/Sk5J/qJH7/pePEt+xuSSSiBbePsZzAFdj8pPQ8NqCGSrTngDQeTPUNpAVvgZbuPkkkxpkU4YDYD/OF1HnbuMXC6FfbOljfnJdtE+1aMMQ8Bmk1+burWtqZh4zqw1kcew9JxUDwMvGv/YEkFNHSpRxwVGvn3kX/zHozp//qaWk8WKh+KvMYRAveAhtZcX6jPVCanPN95+x4/XKjoeybSNdVr+RnBOvhYj8M4lbxb0VyBmeqMhLI9xH9D/dcZL2pCR+rsDTb+5Z9RRlOcPxV35KfGcbqz0DYJ40HC+2Xv+204C1QdXjwdjdu/CYKjir2VsXGLwp+4jgoCW3s54YPggp+ysZouBnDDPybjL5IiMuUUOMc4p3/SUk4ogU2/pI9kYxq9cdb+k+sN3OQcy+OBws3y/8dtOAtsKjhaJJIYOK6dXP3BckHJnLT+KKkfjH8QMF/Yz+3ykPqMAUna1T+2MQSwTWPot/DQywxPeDrJcFdE4hn1s2SgIwGgYmowiMkpQ0VLD+K48HCrfILvG+FFnxaVDuT4zfsYb2D3DGlTPIr2T8YH18JyC+/qpomog8sVZytOkCCbxyR/Z09kl9Z7MM8HPr7jqQ9ICIKKrDxF0q/oZ5VpWnMivGQdiCiZ3gLvLntgCQU4x2iHJRPFv0gRs7UHckvjNgAUiEugcLeiP0bzHgp9uET/VXLky9v3Cv52XXKPlg3ThKS0Yxr4sEdY5U+9ID2EIi0VyvHi/Y2MY9BtOAtoBJUgeFyLU5953nJD8bBvaLG9mVNx1hPMjgEbPSDjandyXplditSl2EnL11lHnE+NX1xUv9n2BWQdhFuKpbExC2w4f+YV+wdoH6q0meoefaqU1meme9nvclowVuA3/xsNLMQ45aJ8asUjYaT7AhdxHaPybKlKs8eO7CpUKUW43A459xV+QALysbZTah+miQomLfsC8wDM/JqpY8qBLECBCuO5V/5AOtNRgveAo9Vytv9qtwTIObIwO6ZV5m4Tp2bMdQRweW7Rl8YrklMhVjzEPao4TaKmbuapP5sXavumSMnhnlm/zXrjYXqF1qkflho/5vMIzO88++QxkLYpEIL3gKqtWuzVZOdp7okX5gYTqR6CcWtdEZfmPEadhXIxRGfMd45hOoHxj6kM+AlOhuoDlxjUypBxC/1w/xrv88crGOWDx/tVN+spwVvgQcXVCeJBbbOsDsqospVF63PZ35O9T8XyBmTVuLtj02SQ6GOi1fovURiu3H2txtV9QL/mmQx+1d/W/KBmZ1UMkO1QuQrv4f1ymjBW+AexYy71WQjCOD6RNHfaGbJYBwUXxKf+XCaZwDy5sXnSuuP0JdjsX3tUTl11g6i3fslQcFC+yYxjzjh1nKln7/6u8wjPZGOtcoxQgcKmIeMFrwFVOvcOMBhhiq8MFq6i6/E5DIYjv6lo6ZVTgzDBtl/CyGZMfEtFchRyYSBWKiC2VUUFCzSvoZ5xcEBE0/Jx5W+yMBMR/TcLrpZJT7rXfDp2NjmqRJa8BaAQIyCgWFnNRW/+/RU6RluWDFJxdi3d0nPvPOZaazXHKz6iGv4eNkV6+moNqVUBNY/RgURWPcTOpumInKi1jRMQbkPFeGDRUp/GERvdiAEG02qF1VY+LB5qjPIluARWiELlOMt+Tv208hhm+Bvey15/RzW1pf63Op/KeJwmJXTUNjUUj1rBTH8Uh0ZPNiVvpRI9NxuSRgwzKAIO4J1L5Lg1qdjwvwx8VX+h9IX5l/5IBtRDZYPVc9xQ9owxoAofSvuV87q3JCykA6V4K0anuWEYv8eT/HHiXfhZ+nPgfU/pT4g3DQv8fNIYpvgbxpfKInmbJrLb2uFEhzcsKafDlUqA+ySP/2qipjEhtjf+LvZ7q4ILcI0/T1J/8MzNd/iL5IBr3noB/qvnhqWCLmhCKsV7BI8gMh5dQT8jG+l8JEltLaOp/A22j6S2CZ41RG+iylWWTjiMzCzNF8jSxpblc9ixSUd4rIojiIaf9/WYb3+Zf/FVhLc8ULKWVVlWKWhqblRa8ueSO81y6+xalgKtXLk0FbBb/4VCW5/PvEzZnZssPmrHqLfhCONbYI3CoYblvrSoTqCZ4W1R09Iz8GQumAFVS4O7OeGk1WZgJfX4O5X6YyNLXuVGGBI8cWM139laBta0TPbYu8B36Gzo2p8K5ZO+HYKHkcVkTHKf44cX0n9EA7aVd0hE2wTvNNQ1bZ5/4QieuB82AxE6cyPl1ikEeCgd7RrHz0VZSf9F4/Rs6o4oI2qBKGGWfSihWhPA01NRuUyf9U3JVFyszrj5xOuFLzZARJkfOYjkVObYuHDZ5SiRylvq2FVPuBKwT+uWMO/c1Y5681fQo2zybWCG5MEHzkxtMMtTsV1gkdCmyh2mNXY3+kMeHvoyyPEHtjyFGt1D64QPK5NxP2gqlKAMCxxug3k4+DmP7eRt4JXbSapbEVzG3tC4wZcK/iPvv6W8hC3Jr9xneCve3YarQyM63k07iNvBY88nuXNx+kFCv9esoo8Ur6ezKhrJAfOuuPlVKPGFS+tGg1HC17jKrTgNa5CC17jKrTgNa5CC17jIgj5f6z6JH4unq8bAAAAAElFTkSuQmCC;" parent="1" vertex="1">
          <mxGeometry x="1066.84" y="166.82" width="90.08" height="53.18" as="geometry" />
        </mxCell>
        <mxCell id="nARX7tSyhjKvSozt1vOL-18" value="" style="rounded=0;whiteSpace=wrap;html=1;movable=0;resizable=0;rotatable=0;deletable=0;editable=0;locked=1;connectable=0;" parent="1" vertex="1">
          <mxGeometry x="70" y="50" width="160" height="460" as="geometry" />
        </mxCell>
        <mxCell id="nARX7tSyhjKvSozt1vOL-20" value="&lt;h2&gt;后台数据交互系统&lt;/h2&gt;" style="text;align=center;fontStyle=1;verticalAlign=middle;spacingLeft=3;spacingRight=3;strokeColor=none;rotatable=0;points=[[0,0.5],[1,0.5]];portConstraint=eastwest;html=1;" parent="1" vertex="1">
          <mxGeometry x="620" y="79" width="80" height="26" as="geometry" />
        </mxCell>
        <mxCell id="nARX7tSyhjKvSozt1vOL-21" value="&lt;h2&gt;终端&lt;/h2&gt;" style="text;align=center;fontStyle=1;verticalAlign=middle;spacingLeft=3;spacingRight=3;strokeColor=none;rotatable=0;points=[[0,0.5],[1,0.5]];portConstraint=eastwest;html=1;" parent="1" vertex="1">
          <mxGeometry x="100" y="79" width="80" height="26" as="geometry" />
        </mxCell>
        <mxCell id="nARX7tSyhjKvSozt1vOL-73" style="edgeStyle=orthogonalEdgeStyle;rounded=0;orthogonalLoop=1;jettySize=auto;html=1;entryX=0.5;entryY=0;entryDx=0;entryDy=0;" parent="1" source="nARX7tSyhjKvSozt1vOL-26" target="nARX7tSyhjKvSozt1vOL-60" edge="1">
          <mxGeometry relative="1" as="geometry" />
        </mxCell>
        <mxCell id="nARX7tSyhjKvSozt1vOL-26" value="" style="image;points=[];aspect=fixed;html=1;align=center;shadow=0;dashed=0;image=img/lib/allied_telesis/media_converters/Media_Converter_Standalone_POE.svg;" parent="1" vertex="1">
          <mxGeometry x="97.55" y="151.9" width="61.29" height="50" as="geometry" />
        </mxCell>
        <mxCell id="nARX7tSyhjKvSozt1vOL-71" value="" style="edgeStyle=orthogonalEdgeStyle;rounded=0;orthogonalLoop=1;jettySize=auto;html=1;" parent="1" source="nARX7tSyhjKvSozt1vOL-27" target="nARX7tSyhjKvSozt1vOL-60" edge="1">
          <mxGeometry relative="1" as="geometry" />
        </mxCell>
        <mxCell id="nARX7tSyhjKvSozt1vOL-27" value="" style="image;points=[];aspect=fixed;html=1;align=center;shadow=0;dashed=0;image=img/lib/allied_telesis/media_converters/Media_Converter_Standalone_POE.svg;" parent="1" vertex="1">
          <mxGeometry x="100" y="251" width="58.84" height="48" as="geometry" />
        </mxCell>
        <mxCell id="nARX7tSyhjKvSozt1vOL-72" style="edgeStyle=orthogonalEdgeStyle;rounded=0;orthogonalLoop=1;jettySize=auto;html=1;entryX=0.5;entryY=1;entryDx=0;entryDy=0;" parent="1" edge="1">
          <mxGeometry relative="1" as="geometry">
            <mxPoint x="158.83999999999992" y="370" as="sourcePoint" />
            <mxPoint x="250" y="285" as="targetPoint" />
          </mxGeometry>
        </mxCell>
        <mxCell id="nARX7tSyhjKvSozt1vOL-28" value="" style="image;points=[];aspect=fixed;html=1;align=center;shadow=0;dashed=0;image=img/lib/allied_telesis/media_converters/Media_Converter_Standalone_POE.svg;" parent="1" vertex="1">
          <mxGeometry x="97.55" y="360" width="61.29" height="50" as="geometry" />
        </mxCell>
        <mxCell id="nARX7tSyhjKvSozt1vOL-33" value="" style="image;sketch=0;aspect=fixed;html=1;points=[];align=center;fontSize=12;image=img/lib/mscae/Docker.svg;" parent="1" vertex="1">
          <mxGeometry x="616.46" y="380" width="77.07" height="63.2" as="geometry" />
        </mxCell>
        <mxCell id="nARX7tSyhjKvSozt1vOL-41" value="" style="image;aspect=fixed;perimeter=ellipsePerimeter;html=1;align=center;shadow=0;dashed=0;spacingTop=3;image=img/lib/active_directory/web_server.svg;" parent="1" vertex="1">
          <mxGeometry x="375" y="185.98" width="110" height="137.5" as="geometry" />
        </mxCell>
        <mxCell id="1oweK36hP_e1x9AW6LBD-6" value="" style="edgeStyle=orthogonalEdgeStyle;rounded=0;orthogonalLoop=1;jettySize=auto;html=1;" parent="1" source="nARX7tSyhjKvSozt1vOL-60" target="nARX7tSyhjKvSozt1vOL-41" edge="1">
          <mxGeometry relative="1" as="geometry">
            <Array as="points">
              <mxPoint x="360" y="275" />
              <mxPoint x="360" y="275" />
            </Array>
          </mxGeometry>
        </mxCell>
        <mxCell id="nARX7tSyhjKvSozt1vOL-60" value="&lt;h3&gt;&lt;b&gt;HTTP请求&lt;/b&gt;&lt;/h3&gt;" style="rounded=1;whiteSpace=wrap;html=1;fillColor=#fff2cc;strokeColor=#d6b656;" parent="1" vertex="1">
          <mxGeometry x="200" y="250" width="100" height="50" as="geometry" />
        </mxCell>
        <mxCell id="1oweK36hP_e1x9AW6LBD-12" value="" style="edgeStyle=orthogonalEdgeStyle;rounded=0;orthogonalLoop=1;jettySize=auto;html=1;" parent="1" source="nARX7tSyhjKvSozt1vOL-67" target="nARX7tSyhjKvSozt1vOL-30" edge="1">
          <mxGeometry relative="1" as="geometry" />
        </mxCell>
        <mxCell id="1oweK36hP_e1x9AW6LBD-23" value="&lt;h1&gt;&lt;b&gt;YES&lt;/b&gt;&lt;/h1&gt;" style="edgeLabel;html=1;align=center;verticalAlign=middle;resizable=0;points=[];" parent="1oweK36hP_e1x9AW6LBD-12" vertex="1" connectable="0">
          <mxGeometry x="-0.2333" y="2" relative="1" as="geometry">
            <mxPoint x="5" y="2" as="offset" />
          </mxGeometry>
        </mxCell>
        <mxCell id="nARX7tSyhjKvSozt1vOL-67" value="&lt;font style=&quot;font-size: 15px;&quot;&gt;检验设备序列号&lt;/font&gt;" style="strokeWidth=2;html=1;shape=mxgraph.flowchart.decision;whiteSpace=wrap;" parent="1" vertex="1">
          <mxGeometry x="530" y="235.63" width="90" height="88.75" as="geometry" />
        </mxCell>
        <mxCell id="nARX7tSyhjKvSozt1vOL-68" style="edgeStyle=orthogonalEdgeStyle;rounded=0;orthogonalLoop=1;jettySize=auto;html=1;exitX=0.5;exitY=1;exitDx=0;exitDy=0;exitPerimeter=0;" parent="1" source="nARX7tSyhjKvSozt1vOL-67" target="nARX7tSyhjKvSozt1vOL-67" edge="1">
          <mxGeometry relative="1" as="geometry" />
        </mxCell>
        <mxCell id="1oweK36hP_e1x9AW6LBD-1" style="edgeStyle=orthogonalEdgeStyle;rounded=0;orthogonalLoop=1;jettySize=auto;html=1;" parent="1" source="nARX7tSyhjKvSozt1vOL-82" target="nARX7tSyhjKvSozt1vOL-28" edge="1">
          <mxGeometry relative="1" as="geometry" />
        </mxCell>
        <mxCell id="nARX7tSyhjKvSozt1vOL-82" value="无权限访问API" style="strokeWidth=2;html=1;shape=mxgraph.flowchart.start_1;whiteSpace=wrap;" parent="1" vertex="1">
          <mxGeometry x="205" y="423.2" width="95" height="46.8" as="geometry" />
        </mxCell>
        <mxCell id="1oweK36hP_e1x9AW6LBD-2" value="WebServer" style="text;strokeColor=none;fillColor=none;html=1;fontSize=24;fontStyle=1;verticalAlign=middle;align=center;" parent="1" vertex="1">
          <mxGeometry x="380" y="323.48" width="100" height="40" as="geometry" />
        </mxCell>
        <mxCell id="1oweK36hP_e1x9AW6LBD-7" style="edgeStyle=orthogonalEdgeStyle;rounded=0;orthogonalLoop=1;jettySize=auto;html=1;entryX=0;entryY=0.5;entryDx=0;entryDy=0;entryPerimeter=0;" parent="1" source="nARX7tSyhjKvSozt1vOL-41" target="nARX7tSyhjKvSozt1vOL-67" edge="1">
          <mxGeometry relative="1" as="geometry">
            <Array as="points">
              <mxPoint x="520" y="280" />
            </Array>
          </mxGeometry>
        </mxCell>
        <mxCell id="1oweK36hP_e1x9AW6LBD-24" style="edgeStyle=orthogonalEdgeStyle;rounded=0;orthogonalLoop=1;jettySize=auto;html=1;" parent="1" source="nARX7tSyhjKvSozt1vOL-32" edge="1">
          <mxGeometry relative="1" as="geometry">
            <mxPoint x="970" y="284" as="targetPoint" />
          </mxGeometry>
        </mxCell>
        <mxCell id="1oweK36hP_e1x9AW6LBD-32" value="&lt;font style=&quot;font-size: 15px;&quot;&gt;ServiceImpl&lt;/font&gt;" style="edgeLabel;html=1;align=center;verticalAlign=middle;resizable=0;points=[];" parent="1oweK36hP_e1x9AW6LBD-24" vertex="1" connectable="0">
          <mxGeometry x="-0.0634" y="-2" relative="1" as="geometry">
            <mxPoint as="offset" />
          </mxGeometry>
        </mxCell>
        <mxCell id="nARX7tSyhjKvSozt1vOL-32" value="" style="image;aspect=fixed;html=1;points=[];align=center;fontSize=12;image=img/lib/azure2/compute/Azure_Spring_Cloud.svg;" parent="1" vertex="1">
          <mxGeometry x="770" y="250.01000000000002" width="68" height="68" as="geometry" />
        </mxCell>
        <mxCell id="1oweK36hP_e1x9AW6LBD-43" style="edgeStyle=orthogonalEdgeStyle;rounded=0;orthogonalLoop=1;jettySize=auto;html=1;" parent="1" source="nARX7tSyhjKvSozt1vOL-30" target="nARX7tSyhjKvSozt1vOL-41" edge="1">
          <mxGeometry relative="1" as="geometry">
            <Array as="points">
              <mxPoint x="735" y="170" />
              <mxPoint x="425" y="170" />
            </Array>
          </mxGeometry>
        </mxCell>
        <mxCell id="nARX7tSyhjKvSozt1vOL-30" value="" style="dashed=0;outlineConnect=0;html=1;align=center;labelPosition=center;verticalLabelPosition=bottom;verticalAlign=top;shape=mxgraph.weblogos.java" parent="1" vertex="1">
          <mxGeometry x="710" y="240.01" width="50" height="80" as="geometry" />
        </mxCell>
        <mxCell id="1oweK36hP_e1x9AW6LBD-41" style="edgeStyle=orthogonalEdgeStyle;rounded=0;orthogonalLoop=1;jettySize=auto;html=1;" parent="1" source="1oweK36hP_e1x9AW6LBD-11" target="nARX7tSyhjKvSozt1vOL-26" edge="1">
          <mxGeometry relative="1" as="geometry" />
        </mxCell>
        <mxCell id="1oweK36hP_e1x9AW6LBD-11" value="Json结果" style="strokeWidth=2;html=1;shape=mxgraph.flowchart.start_1;whiteSpace=wrap;" parent="1" vertex="1">
          <mxGeometry x="200" y="100" width="100" height="50" as="geometry" />
        </mxCell>
        <mxCell id="1oweK36hP_e1x9AW6LBD-51" style="edgeStyle=orthogonalEdgeStyle;rounded=0;orthogonalLoop=1;jettySize=auto;html=1;" parent="1" source="1oweK36hP_e1x9AW6LBD-53" target="nARX7tSyhjKvSozt1vOL-11" edge="1">
          <mxGeometry relative="1" as="geometry">
            <Array as="points">
              <mxPoint x="1010" y="470" />
              <mxPoint x="1010" y="400" />
              <mxPoint x="1128" y="400" />
            </Array>
          </mxGeometry>
        </mxCell>
        <mxCell id="1oweK36hP_e1x9AW6LBD-14" value="&lt;font style=&quot;font-size: 20px;&quot;&gt;后端接口API&lt;/font&gt;" style="text;strokeColor=none;fillColor=none;html=1;fontSize=24;fontStyle=1;verticalAlign=middle;align=center;" parent="1" vertex="1">
          <mxGeometry x="700" y="323.48" width="100" height="40" as="geometry" />
        </mxCell>
        <mxCell id="1oweK36hP_e1x9AW6LBD-49" style="edgeStyle=orthogonalEdgeStyle;rounded=0;orthogonalLoop=1;jettySize=auto;html=1;" parent="1" source="1oweK36hP_e1x9AW6LBD-17" edge="1">
          <mxGeometry relative="1" as="geometry">
            <mxPoint x="1130" y="230" as="targetPoint" />
          </mxGeometry>
        </mxCell>
        <mxCell id="1oweK36hP_e1x9AW6LBD-17" value="&lt;font style=&quot;font-size: 19px;&quot;&gt;&lt;b&gt;MyBatis&lt;br&gt;持久层&lt;/b&gt;&lt;/font&gt;" style="rounded=1;whiteSpace=wrap;html=1;" parent="1" vertex="1">
          <mxGeometry x="980" y="231.74" width="117.5" height="74.01" as="geometry" />
        </mxCell>
        <mxCell id="1oweK36hP_e1x9AW6LBD-21" value="" style="endArrow=classic;html=1;rounded=0;exitX=0.5;exitY=1;exitDx=0;exitDy=0;exitPerimeter=0;" parent="1" source="nARX7tSyhjKvSozt1vOL-67" edge="1">
          <mxGeometry width="50" height="50" relative="1" as="geometry">
            <mxPoint x="510" y="450" as="sourcePoint" />
            <mxPoint x="300" y="450" as="targetPoint" />
            <Array as="points">
              <mxPoint x="575" y="450" />
            </Array>
          </mxGeometry>
        </mxCell>
        <mxCell id="1oweK36hP_e1x9AW6LBD-22" value="&lt;h1&gt;NO&lt;/h1&gt;" style="edgeLabel;html=1;align=center;verticalAlign=middle;resizable=0;points=[];" parent="1oweK36hP_e1x9AW6LBD-21" vertex="1" connectable="0">
          <mxGeometry x="0.2312" y="-3" relative="1" as="geometry">
            <mxPoint as="offset" />
          </mxGeometry>
        </mxCell>
        <mxCell id="1oweK36hP_e1x9AW6LBD-31" value="" style="endArrow=classic;html=1;rounded=0;" parent="1" edge="1">
          <mxGeometry width="50" height="50" relative="1" as="geometry">
            <mxPoint x="970" y="250" as="sourcePoint" />
            <mxPoint x="840" y="251" as="targetPoint" />
          </mxGeometry>
        </mxCell>
        <mxCell id="1oweK36hP_e1x9AW6LBD-35" value="&lt;font style=&quot;font-size: 15px;&quot;&gt;Entity/VO&lt;/font&gt;" style="edgeLabel;html=1;align=center;verticalAlign=middle;resizable=0;points=[];" parent="1oweK36hP_e1x9AW6LBD-31" vertex="1" connectable="0">
          <mxGeometry x="0.0275" relative="1" as="geometry">
            <mxPoint as="offset" />
          </mxGeometry>
        </mxCell>
        <mxCell id="1oweK36hP_e1x9AW6LBD-39" style="edgeStyle=orthogonalEdgeStyle;rounded=0;orthogonalLoop=1;jettySize=auto;html=1;entryX=1;entryY=0.5;entryDx=0;entryDy=0;entryPerimeter=0;strokeWidth=2;" parent="1" target="1oweK36hP_e1x9AW6LBD-11" edge="1">
          <mxGeometry relative="1" as="geometry">
            <mxPoint x="400" y="200" as="sourcePoint" />
            <Array as="points">
              <mxPoint x="335" y="200" />
              <mxPoint x="335" y="125" />
            </Array>
          </mxGeometry>
        </mxCell>
        <mxCell id="1oweK36hP_e1x9AW6LBD-44" value="&lt;b&gt;&lt;font style=&quot;font-size: 15px;&quot;&gt;RESTFUL&lt;/font&gt;&lt;/b&gt;" style="text;html=1;align=center;verticalAlign=middle;resizable=0;points=[];autosize=1;strokeColor=none;fillColor=none;" parent="1" vertex="1">
          <mxGeometry x="530" y="136.82" width="90" height="30" as="geometry" />
        </mxCell>
        <mxCell id="1oweK36hP_e1x9AW6LBD-46" style="edgeStyle=orthogonalEdgeStyle;rounded=0;orthogonalLoop=1;jettySize=auto;html=1;entryX=0.019;entryY=0.667;entryDx=0;entryDy=0;entryPerimeter=0;" parent="1" source="nARX7tSyhjKvSozt1vOL-32" target="nARX7tSyhjKvSozt1vOL-11" edge="1">
          <mxGeometry relative="1" as="geometry">
            <Array as="points">
              <mxPoint x="820" y="363" />
            </Array>
          </mxGeometry>
        </mxCell>
        <mxCell id="1oweK36hP_e1x9AW6LBD-47" value="&lt;font style=&quot;font-size: 18px;&quot;&gt;&lt;b&gt;请求队列&lt;/b&gt;&lt;/font&gt;" style="edgeLabel;html=1;align=center;verticalAlign=middle;resizable=0;points=[];" parent="1oweK36hP_e1x9AW6LBD-46" vertex="1" connectable="0">
          <mxGeometry x="0.0445" y="-2" relative="1" as="geometry">
            <mxPoint x="5" y="35" as="offset" />
          </mxGeometry>
        </mxCell>
        <mxCell id="1oweK36hP_e1x9AW6LBD-53" value="" style="outlineConnect=0;dashed=0;verticalLabelPosition=bottom;verticalAlign=top;align=center;html=1;shape=mxgraph.aws3.saml_token;fillColor=#D2D3D3;gradientColor=none;" parent="1" vertex="1">
          <mxGeometry x="870" y="430" width="69" height="72" as="geometry" />
        </mxCell>
        <mxCell id="1oweK36hP_e1x9AW6LBD-48" value="" style="outlineConnect=0;dashed=0;verticalLabelPosition=bottom;verticalAlign=top;align=center;html=1;shape=mxgraph.aws3.queue;fillColor=#D9A741;gradientColor=none;" parent="1" vertex="1">
          <mxGeometry x="907" y="337" width="73.5" height="48" as="geometry" />
        </mxCell>
        <mxCell id="1oweK36hP_e1x9AW6LBD-54" value="" style="edgeStyle=orthogonalEdgeStyle;rounded=0;orthogonalLoop=1;jettySize=auto;html=1;" parent="1" source="1oweK36hP_e1x9AW6LBD-14" target="1oweK36hP_e1x9AW6LBD-53" edge="1">
          <mxGeometry relative="1" as="geometry">
            <mxPoint x="750" y="363" as="sourcePoint" />
            <mxPoint x="1128" y="385" as="targetPoint" />
            <Array as="points">
              <mxPoint x="750" y="466" />
            </Array>
          </mxGeometry>
        </mxCell>
        <mxCell id="1oweK36hP_e1x9AW6LBD-55" value="&lt;font style=&quot;font-size: 15px;&quot;&gt;TOKEN&lt;/font&gt;" style="edgeLabel;html=1;align=center;verticalAlign=middle;resizable=0;points=[];fontStyle=1" parent="1oweK36hP_e1x9AW6LBD-54" vertex="1" connectable="0">
          <mxGeometry x="-0.0656" y="4" relative="1" as="geometry">
            <mxPoint x="68" y="4" as="offset" />
          </mxGeometry>
        </mxCell>
      </root>
    </mxGraphModel>
  </diagram>
</mxfile>
